<?xml version="1.0" encoding="UTF-8" standalone="no"?>
<!-- Created with Inkscape (http://www.inkscape.org/) -->

<svg
   width="59.962959mm"
   height="59.962795mm"
   viewBox="0 0 59.962959 59.962795"
   version="1.1"
   id="svg5"
   inkscape:version="1.1.1 (3bf5ae0d25, 2021-09-20)"
   sodipodi:docname="corner.svg"
   xmlns:inkscape="http://www.inkscape.org/namespaces/inkscape"
   xmlns:sodipodi="http://sodipodi.sourceforge.net/DTD/sodipodi-0.dtd"
   xmlns="http://www.w3.org/2000/svg"
   xmlns:svg="http://www.w3.org/2000/svg">
  <sodipodi:namedview
     id="namedview7"
     pagecolor="#ffffff"
     bordercolor="#666666"
     borderopacity="1.0"
     inkscape:pageshadow="2"
     inkscape:pageopacity="0.0"
     inkscape:pagecheckerboard="0"
     inkscape:document-units="mm"
     showgrid="false"
     inkscape:zoom="1.0607991"
     inkscape:cx="119.24973"
     inkscape:cy="49.490994"
     inkscape:window-width="1920"
     inkscape:window-height="1027"
     inkscape:window-x="-8"
     inkscape:window-y="-8"
     inkscape:window-maximized="1"
     inkscape:current-layer="layer1" />
  <defs
     id="defs2" />
  <g
     inkscape:label="Layer 1"
     inkscape:groupmode="layer"
     id="layer1"
     transform="translate(-29.98273,-99.248568)">
    <path
       d="m 38.433571,106.75065 c -0.171803,-0.20462 -0.454025,0.0875 -0.291042,0.29139 1.693687,2.11773 -0.329847,4.51168 -2.591505,4.73957 -1.895475,0.1905 -3.440995,-0.82091 -5.052837,-1.64712 -0.07832,-0.0402 -0.16898,0.0621 -0.09807,0.12735 0.0032,0.003 0.0064,0.005 0.0095,0.008 -0.05433,0.0325 -0.0956,0.0864 -0.09631,0.16827 -0.182386,16.17804 -0.592314,32.43616 -0.08819,48.60961 0.0067,0.21766 0.334786,0.21872 0.33902,0 0.310444,-16.15652 -0.01164,-32.33773 0.168275,-48.49919 1.786466,1.4598 4.435475,2.3107 6.582481,1.16664 1.831269,-0.97579 2.488142,-3.33164 1.118658,-4.96464"
       style="fill:#171717;fill-opacity:1;fill-rule:nonzero;stroke:none;stroke-width:0.0352778"
       id="path233" />
    <path
       d="m 30.359193,99.97378 c -0.238831,3.054 -0.261056,6.19655 -0.156634,9.25689 0.0067,0.19932 0.301625,0.19932 0.309034,0 0.117122,-3.07304 0.214489,-6.18207 0.196497,-9.25689 -0.0014,-0.22683 -0.331611,-0.22119 -0.348897,0"
       style="fill:#171717;fill-opacity:1;fill-rule:nonzero;stroke:none;stroke-width:0.0352778"
       id="path235" />
    <path
       d="m 36.953315,106.95561 c -0.333727,-0.71226 -1.208264,-1.58221 -2.007658,-1.52576 -0.590903,-0.0483 -1.133122,0.5715 -1.167695,1.12783 -0.01799,0.29069 0.07197,0.67098 0.298098,0.87489 0.142169,0.12876 0.364772,0.18097 0.4699,-0.0127 0.05433,-0.10055 -0.06844,-0.1831 -0.150636,-0.11642 -0.08996,0.073 -0.271992,-0.43533 -0.279753,-0.47943 -0.03845,-0.2099 -0.0018,-0.4392 0.10795,-0.62194 0.18803,-0.31398 0.468489,-0.37148 0.780344,-0.44168 1.39065,0.17639 3.026481,3.22192 0.437798,4.03119 -0.04763,0.0148 -0.07796,0.0413 -0.09948,0.0716 -2.102908,0.5708 -3.162653,-2.54987 -3.191581,-4.06541 -0.02681,-1.4037 0.05503,-2.81305 -0.05327,-4.21322 -0.01517,-0.19756 -0.292453,-0.19791 -0.307622,0 -0.124178,1.63195 -0.186267,3.42547 -0.01517,5.05671 0.07832,0.74507 0.249414,1.44745 0.679803,2.07504 0.59302,0.86537 1.993548,1.89089 3.042709,1.42946 0.01411,7e-4 0.02716,0.004 0.04233,0.001 1.491545,-0.21414 1.990372,-1.9618 1.413933,-3.19158"
       style="fill:#171717;fill-opacity:1;fill-rule:nonzero;stroke:none;stroke-width:0.0352778"
       id="path237" />
    <path
       d="m 40.531893,115.0755 c -0.398286,-1.18957 -1.970264,-1.6383 -3.10903,-0.94651 -1.478139,0.89818 -1.1811,2.90619 0.579614,3.18841 0.173919,0.0279 0.293158,-0.19579 0.125589,-0.29775 -0.416278,-0.25294 -0.890764,-0.37958 -1.143001,-0.83643 -0.398991,-0.72249 0.176389,-1.48026 0.830439,-1.80693 0.905228,-0.45226 1.747309,-0.11853 2.244726,0.57009 1.742016,3.47874 -2.032001,6.36482 -5.235576,4.07776 -2.173111,-1.55117 -2.693811,-4.23757 -2.889956,-6.73488 -0.01164,-0.14676 -0.230363,-0.15099 -0.231775,0 -0.02469,3.32493 1.426281,7.70855 5.346348,8.03134 2.889956,0.23812 4.875389,-2.85433 3.482622,-5.2451"
       style="fill:#171717;fill-opacity:1;fill-rule:nonzero;stroke:none;stroke-width:0.0352778"
       id="path239" />
    <path
       d="m 32.053232,117.74003 c -0.05398,-0.11783 -0.253295,-0.0342 -0.210256,0.0885 1.086556,3.09387 3.901017,4.9269 5.800373,7.46972 1.397705,1.87149 2.129367,4.1716 1.776942,6.51157 -0.209198,1.3903 -0.818445,2.70228 -2.18052,3.27802 -1.750131,0.73977 -3.360209,-0.18804 -4.132792,-1.73497 -0.281517,-0.91052 -0.236008,-1.89088 0.939447,-2.15582 0.632531,-0.14252 1.398412,-0.072 1.797403,0.49424 0.545748,0.774 0.341489,1.90465 -0.763058,1.9297 -0.202495,0.005 -0.248356,0.30021 -0.04833,0.3556 0.830792,0.23142 1.538817,-0.54787 1.543756,-1.3455 0.006,-0.90487 -0.642761,-1.76036 -1.5494,-1.87572 -0.884061,-0.11218 -1.924403,0.11712 -2.326922,0.99483 -0.193676,0.42228 -0.207081,0.84985 -0.107951,1.25977 0.0011,0.007 -3.52e-4,0.0123 0.0014,0.0198 0.459316,1.83974 2.194983,3.048 4.096103,2.68464 2.093736,-0.4004 3.062464,-2.40242 3.21945,-4.36104 0.497769,-6.21171 -5.589764,-8.64165 -7.855656,-13.61334"
       style="fill:#171717;fill-opacity:1;fill-rule:nonzero;stroke:none;stroke-width:0.0352778"
       id="path241" />
    <path
       d="m 37.081021,136.9128 c -1.620308,-0.78458 -3.373614,-0.17745 -4.712053,0.8583 -0.06244,0.0483 -0.06985,0.11818 -0.04621,0.18063 -1.363486,1.45273 -0.73025,4.42348 1.588206,4.53178 1.214614,0.0568 1.966736,-1.12325 2.022122,-2.2412 0.06385,-1.28905 -1.170869,-1.37901 -2.054931,-0.81209 -0.166864,0.10724 -0.06138,0.42121 0.142523,0.33866 0.489655,-0.1979 1.401233,-0.73166 1.466497,0.64947 0.01129,0.23565 -0.238478,0.78352 -0.326672,0.93486 -0.623006,1.07209 -1.921934,0.77364 -2.604559,-0.0229 -0.953558,-1.11337 -0.614186,-2.5139 0.312914,-3.45052 1.152172,-0.73131 2.46627,-1.25342 3.812117,-0.67698 1.653117,0.70802 1.854553,2.35691 1.819981,3.94935 -0.05151,2.37419 -0.894645,4.67148 -2.062339,6.71336 -1.026584,1.79599 -2.430992,3.29353 -3.584928,4.99604 -0.458612,0.67733 -0.937684,1.43192 -1.070681,2.21368 -0.0018,0.004 -0.0046,0.006 -0.006,0.01 -0.672395,1.69298 1.367367,3.02578 2.846917,2.3809 0.760236,-0.33126 0.999419,-1.00154 0.64523,-1.74378 -0.220486,-0.46285 -0.793044,-0.85266 -1.201561,-0.35243 -0.08114,0.0995 0.04833,0.23742 0.143933,0.14394 0.496359,-0.48542 0.792339,0.40005 0.827617,0.64452 0.05539,0.38171 -0.122061,0.6978 -0.453319,0.87736 -0.3937,0.21308 -0.908403,0.25012 -1.337381,0.13547 -0.74542,-0.19967 -1.126772,-0.80151 -1.201208,-1.48872 0.03704,-1.66371 1.634066,-3.26673 2.561519,-4.44606 0.734484,-0.93381 1.442509,-1.87996 2.047523,-2.90478 1.237897,-2.09655 2.129719,-4.44288 2.250722,-6.89327 0.08502,-1.72685 -0.08925,-3.68406 -1.825978,-4.52508"
       style="fill:#171717;fill-opacity:1;fill-rule:nonzero;stroke:none;stroke-width:0.0352778"
       id="path243" />
    <path
       d="m 37.484952,107.69962 c -0.204964,-0.1718 0.08749,-0.45403 0.291041,-0.2914 2.118078,1.69404 4.512028,-0.32984 4.73957,-2.5915 0.190853,-1.89548 -0.820561,-3.441 -1.646767,-5.05249 -0.04022,-0.0783 0.06209,-0.16933 0.127,-0.0981 0.0028,0.003 0.0056,0.006 0.0081,0.009 0.03246,-0.054 0.08643,-0.0953 0.168628,-0.0963 16.177684,-0.18204 32.435803,-0.59197 48.609253,-0.0879 0.21802,0.007 0.21908,0.33479 0,0.33867 -16.15616,0.31045 -32.33773,-0.0113 -48.498834,0.16863 1.459795,1.78647 2.310342,4.43547 1.166284,6.58248 -0.975784,1.83092 -3.331634,2.48814 -4.964289,1.11866"
       style="fill:#171717;fill-opacity:1;fill-rule:nonzero;stroke:none;stroke-width:0.0352778"
       id="path245" />
    <path
       d="m 30.70809,99.62489 c 3.053645,-0.23848 6.196189,-0.26106 9.25689,-0.15664 0.198966,0.007 0.198966,0.30163 0,0.30939 -3.073048,0.11712 -6.182079,0.21449 -9.25689,0.19614 -0.227189,-0.001 -0.221544,-0.33161 0,-0.34889"
       style="fill:#171717;fill-opacity:1;fill-rule:nonzero;stroke:none;stroke-width:0.0352778"
       id="path247" />
    <path
       d="m 37.689563,106.21936 c -0.712259,-0.33373 -1.581856,-1.20826 -1.525764,-2.00801 -0.04833,-0.59055 0.571853,-1.13277 1.12783,-1.16734 0.291042,-0.018 0.670984,0.072 0.875242,0.29774 0.128411,0.14253 0.180622,0.36513 -0.01305,0.4699 -0.100189,0.0543 -0.183091,-0.0681 -0.116064,-0.15063 0.07267,-0.0896 -0.435327,-0.27164 -0.479777,-0.27975 -0.20955,-0.0381 -0.439209,-0.001 -0.621948,0.10795 -0.313972,0.18838 -0.371475,0.46848 -0.441325,0.78034 0.176036,1.391 3.221567,3.02648 4.031192,0.4378 0.01482,-0.0476 0.04127,-0.078 0.07126,-0.0991 0.570795,-2.10326 -2.549878,-3.16266 -4.065411,-3.19158 -1.40335,-0.0268 -2.812697,0.055 -4.212873,-0.0533 -0.197555,-0.0155 -0.198261,-0.29246 0,-0.30763 1.631598,-0.12453 3.42512,-0.18626 5.056365,-0.0152 0.745066,0.0783 1.4478,0.24942 2.075039,0.67945 0.865364,0.59338 1.890889,1.9939 1.429808,3.04271 3.53e-4,0.0141 0.0035,0.0275 0.0014,0.0427 -0.214136,1.49154 -1.96215,1.99002 -3.191933,1.41393"
       style="fill:#171717;fill-opacity:1;fill-rule:nonzero;stroke:none;stroke-width:0.0352778"
       id="path249" />
    <path
       d="m 45.809449,109.79794 c -1.189214,-0.39829 -1.6383,-1.97062 -0.946503,-3.10903 0.898173,-1.47814 2.906537,-1.1811 3.188406,0.57926 0.02787,0.17427 -0.195791,0.29351 -0.297744,0.12559 -0.252942,-0.41593 -0.379236,-0.89076 -0.836084,-1.143 -0.722841,-0.39899 -1.480608,0.17674 -1.80728,0.83079 -0.451909,0.90523 -0.118534,1.74731 0.570089,2.24437 3.479094,1.74237 6.364817,-2.03164 4.077758,-5.23557 -1.551164,-2.17276 -4.237214,-2.69346 -6.734881,-2.88996 -0.146403,-0.0113 -0.150989,-0.23036 0,-0.23142 3.324931,-0.025 7.708548,1.42628 8.03134,5.346 0.238125,2.8903 -2.854326,4.87574 -5.245101,3.48297"
       style="fill:#171717;fill-opacity:1;fill-rule:nonzero;stroke:none;stroke-width:0.0352778"
       id="path251" />
    <path
       d="m 48.47398,101.31893 c -0.117828,-0.0536 -0.03422,-0.25295 0.08855,-0.20991 3.094214,1.08621 4.926895,3.90102 7.469717,5.80002 1.871487,1.39771 4.171598,2.12972 6.511573,1.7773 1.39065,-0.2092 2.702631,-0.8188 3.278011,-2.18052 0.739775,-1.75013 -0.187677,-3.36021 -1.734961,-4.13279 -0.910167,-0.28152 -1.890536,-0.23601 -2.155472,0.93944 -0.142875,0.63218 -0.07197,1.39806 0.493889,1.79741 0.774347,0.54574 1.904647,0.34113 1.930047,-0.76341 0.0046,-0.20215 0.299861,-0.24801 0.3556,-0.048 0.231422,0.83079 -0.548217,1.53846 -1.345847,1.54375 -0.904875,0.006 -1.760009,-0.64311 -1.875367,-1.54975 -0.112536,-0.88371 0.116769,-1.92405 0.994481,-2.32657 0.422275,-0.19367 0.850194,-0.20708 1.259769,-0.10795 0.0071,10e-4 0.0127,-7e-4 0.02011,10e-4 1.839384,0.45932 3.048001,2.19534 2.68464,4.0961 -0.400756,2.09409 -2.402417,3.06282 -4.361392,3.21945 -6.211712,0.49777 -8.641645,-5.58941 -13.613343,-7.85565"
       style="fill:#171717;fill-opacity:1;fill-rule:nonzero;stroke:none;stroke-width:0.0352778"
       id="path253" />
    <path
       d="m 67.647101,106.34707 c -0.784931,-1.62031 -0.177448,-3.37362 0.857955,-4.71205 0.04833,-0.0628 0.118534,-0.0702 0.180623,-0.0462 1.452738,-1.36349 4.423478,-0.73025 4.531788,1.58821 0.0568,1.21426 -1.12325,1.96638 -2.2412,2.02177 -1.28905,0.0639 -1.37866,-1.17052 -0.81174,-2.05458 0.10689,-0.16687 0.42086,-0.0614 0.33831,0.14252 -0.19791,0.4893 -0.73131,1.40123 0.64982,1.4665 0.2353,0.0113 0.78316,-0.23883 0.93451,-0.32667 1.07209,-0.62301 0.77364,-1.92229 -0.0229,-2.60456 -1.11301,-0.95356 -2.51389,-0.61419 -3.450162,0.31291 -0.731309,1.15217 -1.25342,2.46592 -0.676981,3.81212 0.707672,1.65311 2.356913,1.85455 3.949343,1.81998 2.3742,-0.0515 4.67149,-0.895 6.71337,-2.06234 1.79564,-1.02694 3.29318,-2.43134 4.99568,-3.58493 0.67734,-0.45896 1.43193,-0.93768 2.21404,-1.07068 0.003,-0.002 0.006,-0.005 0.009,-0.006 1.69333,-0.67204 3.02577,1.36737 2.3809,2.84727 -0.33126,0.75988 -1.00154,0.99907 -1.74379,0.64523 -0.46284,-0.22084 -0.85231,-0.7934 -0.35207,-1.20156 0.0995,-0.0811 0.23707,0.0483 0.14358,0.14393 -0.48542,0.49636 0.40041,0.79234 0.64488,0.82762 0.38135,0.055 0.69744,-0.12206 0.87701,-0.45332 0.21307,-0.3937 0.25047,-0.90875 0.13546,-1.33773 -0.19967,-0.74507 -0.80151,-1.12678 -1.48837,-1.20121 -1.66405,0.0374 -3.26707,1.63407 -4.44641,2.56187 -0.9338,0.73448 -1.87995,1.44216 -2.90477,2.04717 -2.09656,1.23825 -4.44288,2.12972 -6.89328,2.25072 -1.72685,0.0854 -3.684057,-0.0893 -4.524726,-1.82562"
       style="fill:#171717;fill-opacity:1;fill-rule:nonzero;stroke:none;stroke-width:0.0352778"
       id="path255" />
  </g>
</svg>
