<?xml version="1.0" encoding="UTF-8" standalone="no"?>
<!-- Created with Inkscape (http://www.inkscape.org/) -->

<svg
   width="59.962959mm"
   height="59.962795mm"
   viewBox="0 0 59.962959 59.962795"
   version="1.1"
   id="svg5"
   inkscape:version="1.1.1 (3bf5ae0d25, 2021-09-20)"
   sodipodi:docname="corner2.svg"
   xmlns:inkscape="http://www.inkscape.org/namespaces/inkscape"
   xmlns:sodipodi="http://sodipodi.sourceforge.net/DTD/sodipodi-0.dtd"
   xmlns="http://www.w3.org/2000/svg"
   xmlns:svg="http://www.w3.org/2000/svg">
  <sodipodi:namedview
     id="namedview7"
     pagecolor="#ffffff"
     bordercolor="#666666"
     borderopacity="1.0"
     inkscape:pageshadow="2"
     inkscape:pageopacity="0.0"
     inkscape:pagecheckerboard="0"
     inkscape:document-units="mm"
     showgrid="false"
     inkscape:zoom="12.001572"
     inkscape:cx="39.203198"
     inkscape:cy="91.279711"
     inkscape:window-width="1284"
     inkscape:window-height="1041"
     inkscape:window-x="564"
     inkscape:window-y="135"
     inkscape:window-maximized="0"
     inkscape:current-layer="layer1" />
  <defs
     id="defs2" />
  <g
     inkscape:label="Layer 1"
     inkscape:groupmode="layer"
     id="layer1"
     transform="translate(-29.98273,-99.248568)">
    <path
       id="path233"
       style="fill:#171717;fill-opacity:1;fill-rule:nonzero;stroke:none;stroke-width:0.133333"
       transform="matrix(0.26458333,0,0,0.26458333,29.98273,99.248568)"
       d="m 31.408203,28.091797 c -0.545063,0.02038 -1.030358,0.785325 -0.568359,1.363281 1.741943,2.178068 2.437084,4.4334 2.363281,6.580078 0.116111,-0.09777 0.214469,-0.217162 0.339844,-0.302734 0.439924,-0.300263 0.462043,-0.288779 0.83789,-0.414063 0.103971,-0.03466 0.204158,-0.0618 0.302735,-0.08594 -0.125805,-2.400133 -0.997058,-4.79565 -2.744141,-6.878906 -0.162333,-0.193342 -0.349562,-0.268512 -0.53125,-0.261719 z M 2.8046875,46.710938 c -0.2470557,0.03572 -0.5007402,0.06411 -0.7714844,0.0957 -0.2798818,0.04599 -0.5614983,0.05694 -0.84375,0.05664 -0.71127162,59.637099 -2.13134601,119.542469 -0.27343748,179.148439 0.0253228,0.82265 1.26524748,0.82666 1.28124998,0 1.147711,-59.73063 0.021157,-119.54884 0.6074219,-179.300782 z" />
    <path
       d="m 30.359193,99.97378 c -0.238831,3.054 -0.261056,6.19655 -0.156634,9.25689 0.0067,0.19932 0.301625,0.19932 0.309034,0 0.117122,-3.07304 0.214489,-6.18207 0.196497,-9.25689 -0.0014,-0.22683 -0.331611,-0.22119 -0.348897,0"
       style="fill:#171717;fill-opacity:1;fill-rule:nonzero;stroke:none;stroke-width:0.0352778"
       id="path235" />
    <path
       id="path237"
       style="fill:#171717;fill-opacity:1;fill-rule:nonzero;stroke:none;stroke-width:0.133333"
       transform="matrix(0.26458333,0,0,0.26458333,29.98273,99.248568)"
       d="M 7.4101562,8.2675781 C 7.1338237,8.2674128 6.858744,8.4541219 6.8300781,8.828125 6.360744,14.996125 6.12482,21.77609 6.7714844,27.941406 c 0.2960126,2.816013 0.9436454,5.469803 2.5703125,7.841797 1.2394091,1.80862 3.4137901,3.799681 5.7792971,4.925781 0.232606,0.0297 0.465702,0.06151 0.699218,0.08789 0.187445,0.01414 0.374648,0.03579 0.5625,0.04297 0.169099,0.0063 0.338607,1.25e-4 0.507813,-0.002 0.817067,-0.01017 1.634292,-0.06949 2.451172,-0.04492 0.09394,0.0038 0.187797,0.02192 0.28125,0.01172 0.112694,-0.01243 0.219481,-0.05513 0.330078,-0.08008 0.343405,-0.07746 0.689365,-0.143308 1.037109,-0.197265 0.04013,-0.01347 0.08159,-0.0245 0.121094,-0.03906 0.333162,-0.122781 0.634461,-0.322833 0.988281,-0.394531 0.07526,-0.02608 0.15351,-0.04014 0.230469,-0.06055 0.397316,-0.112138 0.170286,-0.03816 0.673828,-0.244141 0.228299,-0.06731 0.462973,-0.116288 0.697266,-0.158203 0.130473,-0.02317 0.26617,0.02229 0.396484,-0.002 0.07973,-0.01478 0.15393,-0.05324 0.230469,-0.08008 0.0668,-0.0223 0.137215,-0.03693 0.201172,-0.06641 0.07128,-0.03288 0.134833,-0.08044 0.203125,-0.119141 0.05201,-0.02947 0.104254,-0.05844 0.15625,-0.08789 2.49227,-2.488247 3.016165,-6.818456 1.457031,-10.146485 v -0.002 C 25.083826,26.435548 21.77856,23.149968 18.757812,23.363281 16.524483,23.18073 14.47442,25.522335 14.34375,27.625 c -0.06799,1.098671 0.272296,2.535957 1.126953,3.306641 0.537332,0.486652 1.378057,0.683158 1.775391,-0.04883 0.205341,-0.380026 -0.257698,-0.691472 -0.56836,-0.439453 -0.340006,0.275906 -1.027307,-1.645822 -1.05664,-1.8125 -0.145323,-0.793322 -0.0086,-1.658938 0.40625,-2.349609 0.710664,-1.186696 1.770559,-1.404599 2.949218,-1.669922 5.256001,0.666671 11.440249,12.17767 1.65625,15.236328 -0.180013,0.05594 -0.295617,0.156965 -0.376953,0.271485 C 12.307861,42.2765 8.3026935,30.479978 8.1933594,24.751953 8.0920302,19.44663 8.4015103,14.120106 7.9921875,8.828125 7.9635198,8.4547833 7.6864893,8.2677435 7.4101562,8.2675781 Z" />
    <path
       id="path239"
       style="fill:#171717;fill-opacity:1;fill-rule:nonzero;stroke:none;stroke-width:0.133333"
       transform="matrix(0.26458333,0,0,0.26458333,29.98273,99.248568)"
       d="m 6.9257812,48.865234 c -0.2128334,-0.002 -0.4211597,0.13654 -0.4238281,0.421875 -0.093316,12.566665 5.3910329,29.135475 20.2070309,30.355469 10.922669,0.899981 18.426111,-10.788238 13.16211,-19.824219 -1.505333,-4.496012 -7.446003,-6.192764 -11.75,-3.578125 -5.586667,3.394696 -4.465214,10.984123 2.189453,12.050782 0.657332,0.105448 1.107941,-0.73964 0.474609,-1.125 -1.573334,-0.955994 -3.366976,-1.433479 -4.320312,-3.160157 -1.507998,-2.73067 0.666672,-5.595419 3.138672,-6.830078 3.421334,-1.709329 6.604373,-0.448361 8.484375,2.154297 6.583997,13.147994 -7.67911,24.056113 -19.78711,15.41211 C 10.087448,68.879498 8.1182886,58.725761 7.3769531,49.287109 7.3549563,49.009768 7.138615,48.867233 6.9257812,48.865234 Z" />
    <path
       id="path241"
       style="fill:#171717;fill-opacity:1;fill-rule:nonzero;stroke:none;stroke-width:0.133333"
       transform="matrix(0.26458333,0,0,0.26458333,29.98273,99.248568)"
       d="M 7.5175781,69.675781 C 7.2396658,69.655576 6.9194164,69.903829 7.03125,70.222656 11.119929,81.864801 21.680222,88.784777 28.857422,98.330078 29.050098,97.977446 29.223373,97.615612 29.392578,97.251953 22.398854,88.285192 12.738246,80.666463 7.8261719,69.888672 7.762416,69.749503 7.6439019,69.684965 7.5175781,69.675781 Z M 31.279297,99.804688 c -0.0075,0.01358 -0.01393,0.02742 -0.02148,0.04102 -0.223762,0.382387 -0.17458,0.300057 -0.414062,0.705077 -0.04466,0.0755 -0.08412,0.1549 -0.134766,0.22656 -0.02655,0.0376 -0.05478,0.0743 -0.08203,0.11133 4.17418,6.58777 6.225996,14.32288 5.042969,22.17774 -0.79067,5.25467 -3.094188,10.21264 -8.242188,12.38867 -6.614668,2.79598 -12.699142,-0.70998 -15.61914,-6.55664 -1.064002,-3.44134 -0.891884,-7.14709 3.550781,-8.14844 2.390668,-0.53866 5.284971,-0.27293 6.792969,1.86719 2.062669,2.92535 1.2899,7.20024 -2.884766,7.29492 -0.765335,0.0189 -0.937644,1.1344 -0.18164,1.34375 3.140001,0.87466 5.815317,-2.07127 5.833984,-5.08594 0.02268,-3.41998 -2.428802,-6.65384 -5.855469,-7.08984 -3.341333,-0.42399 -7.27359,0.44243 -8.794922,3.75976 -0.7320035,1.59602 -0.7828674,3.21242 -0.4082029,4.76172 0.00416,0.0265 -7.623e-4,0.0478 0.00586,0.0762 1.7359975,6.95335 8.2951335,11.51982 15.4804685,10.14649 7.913333,-1.51332 11.574636,-9.07976 12.167969,-16.48242 0.701416,-8.75305 -2.056827,-15.51907 -6.236328,-21.537112 z" />
    <path
       d="m 37.081021,136.9128 c -1.620308,-0.78458 -3.373614,-0.17745 -4.712053,0.8583 -0.06244,0.0483 -0.06985,0.11818 -0.04621,0.18063 -1.363486,1.45273 -0.73025,4.42348 1.588206,4.53178 1.214614,0.0568 1.966736,-1.12325 2.022122,-2.2412 0.06385,-1.28905 -1.170869,-1.37901 -2.054931,-0.81209 -0.166864,0.10724 -0.06138,0.42121 0.142523,0.33866 0.489655,-0.1979 1.401233,-0.73166 1.466497,0.64947 0.01129,0.23565 -0.238478,0.78352 -0.326672,0.93486 -0.623006,1.07209 -1.921934,0.77364 -2.604559,-0.0229 -0.953558,-1.11337 -0.614186,-2.5139 0.312914,-3.45052 1.152172,-0.73131 2.46627,-1.25342 3.812117,-0.67698 1.653117,0.70802 1.854553,2.35691 1.819981,3.94935 -0.05151,2.37419 -0.894645,4.67148 -2.062339,6.71336 -1.026584,1.79599 -2.430992,3.29353 -3.584928,4.99604 -0.458612,0.67733 -0.937684,1.43192 -1.070681,2.21368 -0.0018,0.004 -0.0046,0.006 -0.006,0.01 -0.672395,1.69298 1.367367,3.02578 2.846917,2.3809 0.760236,-0.33126 0.999419,-1.00154 0.64523,-1.74378 -0.220486,-0.46285 -0.793044,-0.85266 -1.201561,-0.35243 -0.08114,0.0995 0.04833,0.23742 0.143933,0.14394 0.496359,-0.48542 0.792339,0.40005 0.827617,0.64452 0.05539,0.38171 -0.122061,0.6978 -0.453319,0.87736 -0.3937,0.21308 -0.908403,0.25012 -1.337381,0.13547 -0.74542,-0.19967 -1.126772,-0.80151 -1.201208,-1.48872 0.03704,-1.66371 1.634066,-3.26673 2.561519,-4.44606 0.734484,-0.93381 1.442509,-1.87996 2.047523,-2.90478 1.237897,-2.09655 2.129719,-4.44288 2.250722,-6.89327 0.08502,-1.72685 -0.08925,-3.68406 -1.825978,-4.52508"
       style="fill:#171717;fill-opacity:1;fill-rule:nonzero;stroke:none;stroke-width:0.0352778"
       id="path243" />
    <path
       id="path245"
       style="fill:#171717;fill-opacity:1;fill-rule:nonzero;stroke:none;stroke-width:0.133333"
       transform="matrix(0.26458333,0,0,0.26458333,29.98273,99.248568)"
       d="m 187.42773,0.17578125 c -0.0103,-0.0288967 -0.0131,-0.0280249 0.004,0.0175781 0.0131,0.0378104 0.0261,0.0753904 0.0391,0.11328124 -0.0176,-0.0546022 -0.0343,-0.10663446 -0.043,-0.13085937 z m 0.28711,0 c 0.007,0.26744153 -0.008,0.52902403 -0.0332,0.79882813 0.18089,0.22102922 0.35877,0.45340132 0.53125,0.69726562 0.1307,0.1848012 0.18543,0.5288566 0.20117,0.9179688 12.53547,-0.057716 25.06948,-0.1537953 37.59766,-0.3945313 0.82802,-0.014665 0.82401,-1.25284018 0,-1.27929688 C 213.25906,0.51855909 200.48991,0.30902766 187.71484,0.17578125 Z M 114.4707,0.3046875 C 90.389436,0.57917469 66.318261,0.97770071 42.292969,1.2480469 c -0.31067,0.00378 -0.515989,0.1591867 -0.638672,0.3632812 -0.0094,-0.011339 -0.01871,-0.021864 -0.0293,-0.033203 -0.245329,-0.2692157 -0.632481,0.075157 -0.480469,0.3710938 3.122669,6.0906687 6.945944,11.9316842 6.22461,19.0957032 -0.860002,8.548006 -9.908729,16.197593 -17.914063,9.794922 -0.768951,-0.614365 -1.872064,0.450196 -1.099609,1.099609 6.170664,5.175988 15.073716,2.69345 18.761719,-4.226562 C 51.441216,19.598207 48.22632,9.5859949 42.708984,2.8339844 65.830515,2.5765603 88.9633,2.5910186 112.09766,2.6445312 c 0.12315,-0.1301016 0.24406,-0.2621527 0.36914,-0.390625 0.65011,-0.6677775 1.34162,-1.29356475 2.0039,-1.9492187 z m 71.90821,1.3359375 c -5.5e-4,0.00179 5.4e-4,0.00407 0,0.00586 0.11876,0.1480772 0.39197,0.4881659 0.75,0.9511718 0.0215,-9.3e-5 0.043,9.45e-5 0.0645,0 -0.27463,-0.3246165 -0.83926,-0.989389 -0.81445,-0.9570312 z m -80.81836,8.0742188 c -0.0538,0.098885 -0.10903,0.1974808 -0.16797,0.2929682 -0.0979,0.158636 0.0167,-0.036941 0.16797,-0.2929682 z" />
    <path
       d="m 30.70809,99.62489 c 3.053645,-0.23848 6.196189,-0.26106 9.25689,-0.15664 0.198966,0.007 0.198966,0.30163 0,0.30939 -3.073048,0.11712 -6.182079,0.21449 -9.25689,0.19614 -0.227189,-0.001 -0.221544,-0.33161 0,-0.34889"
       style="fill:#171717;fill-opacity:1;fill-rule:nonzero;stroke:none;stroke-width:0.0352778"
       id="path247" />
    <path
       d="m 37.689563,106.21936 c -0.712259,-0.33373 -1.581856,-1.20826 -1.525764,-2.00801 -0.04833,-0.59055 0.571853,-1.13277 1.12783,-1.16734 0.291042,-0.018 0.670984,0.072 0.875242,0.29774 0.128411,0.14253 0.180622,0.36513 -0.01305,0.4699 -0.100189,0.0543 -0.183091,-0.0681 -0.116064,-0.15063 0.07267,-0.0896 -0.435327,-0.27164 -0.479777,-0.27975 -0.20955,-0.0381 -0.439209,-0.001 -0.621948,0.10795 -0.313972,0.18838 -0.371475,0.46848 -0.441325,0.78034 0.176036,1.391 3.221567,3.02648 4.031192,0.4378 0.01482,-0.0476 0.04127,-0.078 0.07126,-0.0991 0.570795,-2.10326 -2.549878,-3.16266 -4.065411,-3.19158 -1.40335,-0.0268 -2.812697,0.055 -4.212873,-0.0533 -0.197555,-0.0155 -0.198261,-0.29246 0,-0.30763 1.631598,-0.12453 3.42512,-0.18626 5.056365,-0.0152 0.745066,0.0783 1.4478,0.24942 2.075039,0.67945 0.865364,0.59338 1.890889,1.9939 1.429808,3.04271 3.53e-4,0.0141 0.0035,0.0275 0.0014,0.0427 -0.214136,1.49154 -1.96215,1.99002 -3.191933,1.41393"
       style="fill:#171717;fill-opacity:1;fill-rule:nonzero;stroke:none;stroke-width:0.0352778"
       id="path249" />
    <path
       id="path251"
       style="fill:#171717;fill-opacity:1;fill-rule:nonzero;stroke:none;stroke-width:0.133333"
       transform="matrix(0.26458333,0,0,0.26458333,29.98273,99.248568)"
       d="m 49.287109,6.5019531 c -0.570667,0.00401 -0.553334,0.8322914 0,0.875 9.440002,0.7426772 19.592411,2.7098689 25.455079,10.9218749 0.119394,0.167264 0.233719,0.335881 0.345703,0.503906 0.315867,-0.04708 0.510997,-0.09537 1.226562,-0.25 0.206403,-0.03775 0.412987,-0.07781 0.619141,-0.117187 C 71.505825,9.7996486 59.161988,6.4277044 49.287109,6.5019531 Z M 78.919922,22.839844 c -0.08203,0.0062 -0.163121,0.01437 -0.244141,0.02734 -0.142715,0.02285 -0.280936,0.06361 -0.421875,0.0957 -0.352564,0.08473 -0.709275,0.170245 -1.068359,0.242187 3.239295,10.637961 -6.459694,20.589947 -17.855469,14.882813 -1.647822,-1.189427 -2.755262,-2.902773 -2.914062,-4.867188 -0.08489,-0.02071 -0.162382,-0.04364 -0.345704,-0.09375 -0.112142,-0.05025 -0.224855,-0.09835 -0.335937,-0.150391 0.0091,0.0051 -0.0391,0.0078 -0.05664,0 -0.0163,-0.0072 -0.0435,-0.02049 -0.06641,-0.03125 0.04029,0.0077 0.08002,0.01781 0.119141,0.0293 -0.136949,-0.06412 -0.272539,-0.131496 -0.414063,-0.185547 -0.01586,-0.0061 -0.02345,-0.0082 -0.02539,-0.0078 0.02139,0.01713 0.199381,0.108124 0.318359,0.164062 -0.18872,-0.03592 -0.386312,-0.03529 -0.574219,-0.0332 -0.004,4.5e-5 -0.0077,-3.2e-5 -0.01172,0 0.119646,3.084006 1.852135,5.97339 4.794921,6.958985 9.036,5.264012 20.722266,-2.240094 19.822266,-13.164063 -0.112728,-1.368881 -0.360783,-2.654914 -0.720703,-3.867187 z" />
    <path
       id="path253"
       style="fill:#171717;fill-opacity:1;fill-rule:nonzero;stroke:none;stroke-width:0.133333"
       transform="matrix(0.26458333,0,0,0.26458333,29.98273,99.248568)"
       d="m 70.056641,7.0097656 c -0.365248,0.038008 -0.557637,0.6371933 -0.167969,0.8144532 5.195084,2.3680652 9.646057,5.8522432 13.876953,9.5976562 0.02298,-0.01802 0.04457,-0.03798 0.06836,-0.05469 0.540416,-0.379491 0.428314,-0.301489 0.914063,-0.589844 0.06076,-0.03077 0.12123,-0.06219 0.181641,-0.09375 -4.340409,-4.004405 -8.94083,-7.6281443 -14.707032,-9.652344 -0.058,-0.020334 -0.113837,-0.026914 -0.166015,-0.021484 z m 35.503909,2.7050782 c -0.0538,0.098885 -0.10903,0.1974743 -0.16797,0.2929682 -0.0979,0.158636 0.0167,-0.036941 0.16797,-0.2929682 z m 32.44922,11.9531252 c -0.0747,0.01078 0.13111,-0.02229 -0.5,0.07031 -0.37299,0.08153 -0.74878,0.145238 -1.125,0.205078 0.13956,1.74532 -0.12917,3.592491 -0.92969,5.486329 -2.17467,5.14665 -7.13267,7.449557 -12.38867,8.240234 -8.844,1.331981 -17.538,-1.434114 -24.611332,-6.716797 -2.935105,-2.191969 -5.615548,-4.710259 -8.261719,-7.263672 -0.248201,0.03228 -0.255171,0.01274 -0.78125,0.138672 -0.150096,0.03593 -0.295768,0.08955 -0.443359,0.134766 -0.05222,0.01721 -0.105291,0.03345 -0.158203,0.04883 9.141093,8.478464 18.158743,16.655478 32.529293,15.503906 7.404,-0.591987 14.96971,-4.253298 16.48438,-12.167969 0.23971,-1.25393 0.28893,-2.485989 0.18555,-3.679687 z m -7.42383,0.99414 c -0.12361,0.0403 -0.31911,0.105438 -0.81055,0.320313 -0.25652,0.112157 -0.50369,0.248257 -0.76758,0.341797 -1.52242,0.539659 -3.07589,0.908079 -4.625,1.351562 -0.0175,0.0054 -0.0352,0.01036 -0.0527,0.01563 0.59655,0.151985 1.2148,0.23266 1.83984,0.228516 1.73494,-0.0115 3.44173,-0.90534 4.41602,-2.257813 z" />
    <path
       id="path255"
       style="fill:#171717;fill-opacity:1;fill-rule:nonzero;stroke:none;stroke-width:0.133333"
       transform="matrix(0.26458333,0,0,0.26458333,29.98273,99.248568)"
       d="m 213.35742,6.2871094 c -0.74542,0.021438 -1.52422,0.1785946 -2.32422,0.4960937 -0.0113,0.00378 -0.0219,0.013925 -0.0332,0.021484 -2.95601,0.5026772 -5.80912,2.3122295 -8.36914,4.0468745 -6.43465,4.360026 -12.09419,9.667481 -18.88086,13.548829 -7.71734,4.411993 -16.39969,7.600289 -25.37305,7.794921 -6.01863,0.130659 -12.25307,-0.630931 -14.92773,-6.878906 -0.59083,-1.3798 -0.86914,-2.749694 -0.91602,-4.101562 -0.50423,0.0844 -1.00979,0.156679 -1.51758,0.214844 0.064,1.808129 0.47816,3.623707 1.3379,5.398437 v 0.002 c 3.17733,6.562469 10.57488,7.223162 17.10156,6.900391 9.26135,-0.457323 18.12873,-3.82586 26.05273,-8.50586 3.87334,-2.286652 7.4492,-4.962293 10.97852,-7.738281 4.45735,-3.506646 10.51536,-9.5402862 16.80469,-9.6816405 2.596,0.2813102 4.87229,1.7230499 5.62695,4.5390625 0.43468,1.621342 0.29163,3.568641 -0.51367,5.056641 -0.67869,1.252006 -1.87313,1.920764 -3.31446,1.71289 -0.92398,-0.133341 -4.27215,-1.2529 -2.4375,-3.128906 0.35335,-0.361436 -0.16495,-0.849488 -0.54101,-0.542969 -1.89067,1.542652 -0.41924,3.706345 1.33008,4.541016 2.80535,1.337348 5.33783,0.432534 6.58984,-2.439453 2.13264,-4.894158 -1.45586,-11.4059252 -6.67383,-11.2558596 z M 159.64844,19.216797 c -0.16627,0.120302 -0.32495,0.243852 -0.51367,0.353515 -0.57204,0.331994 -2.64193,1.277071 -3.53125,1.234376 -2.13641,-0.100964 -3.05023,-0.741781 -3.34571,-1.585938 -0.32558,0.03399 -0.65149,0.06191 -1.42383,0.119141 -0.0605,0.0045 -0.12104,0.0069 -0.18164,0.0098 0.23653,1.859896 1.54271,3.276476 4.28321,3.140625 2.36889,-0.117369 4.80627,-1.066782 6.45703,-2.683593 -0.37821,-0.101674 -0.75515,-0.209957 -1.125,-0.337891 -0.23862,-0.08254 -0.43465,-0.165101 -0.61914,-0.25 z" />
  </g>
</svg>
