<?xml version="1.0" encoding="UTF-8" standalone="no"?>
<!-- Created with Inkscape (http://www.inkscape.org/) -->

<svg
   width="6.6075149mm"
   height="93.697807mm"
   viewBox="0 0 6.6075149 93.697807"
   version="1.1"
   id="svg1405"
   sodipodi:docname="line.svg"
   inkscape:version="1.1.1 (3bf5ae0d25, 2021-09-20)"
   xmlns:inkscape="http://www.inkscape.org/namespaces/inkscape"
   xmlns:sodipodi="http://sodipodi.sourceforge.net/DTD/sodipodi-0.dtd"
   xmlns="http://www.w3.org/2000/svg"
   xmlns:svg="http://www.w3.org/2000/svg">
  <sodipodi:namedview
     id="namedview1407"
     pagecolor="#ffffff"
     bordercolor="#666666"
     borderopacity="1.0"
     inkscape:pageshadow="2"
     inkscape:pageopacity="0.0"
     inkscape:pagecheckerboard="0"
     inkscape:document-units="mm"
     showgrid="false"
     inkscape:zoom="1.0607991"
     inkscape:cx="150.35835"
     inkscape:cy="122.07779"
     inkscape:window-width="1920"
     inkscape:window-height="1027"
     inkscape:window-x="-8"
     inkscape:window-y="-8"
     inkscape:window-maximized="1"
     inkscape:current-layer="layer1" />
  <defs
     id="defs1402" />
  <g
     inkscape:label="Layer 1"
     inkscape:groupmode="layer"
     id="layer1"
     transform="translate(-16.896247,-58.643451)">
    <path
       d="m 22.431095,58.707097 c -0.112521,-0.187179 -0.29736,0.08004 -0.190616,0.266569 1.109269,1.937305 -0.216031,4.127303 -1.69729,4.335781 -1.241429,0.174271 -2.253657,-0.750976 -3.309323,-1.506792 -0.05129,-0.03679 -0.110673,0.0568 -0.06423,0.116502 0.0021,0.0026 0.0041,0.0048 0.0062,0.0074 -0.03558,0.0297 -0.06261,0.07907 -0.06308,0.153939 -0.119452,14.799746 -0.387931,29.67275 -0.05776,44.468304 0.0044,0.19912 0.219266,0.20009 0.222039,0 0.203323,-14.780064 -0.0076,-29.582714 0.110211,-44.367291 1.170034,1.335426 2.904986,2.113833 4.311153,1.067244 1.199378,-0.892652 1.629592,-3.047795 0.732658,-4.541679"
       style="fill:#171717;fill-opacity:1;fill-rule:nonzero;stroke:none;stroke-width:0.0273066"
       id="path1633" />
    <path
       d="m 22.488394,152.27835 c -0.112522,0.18504 -0.297361,-0.0792 -0.190616,-0.26349 1.109268,-1.91502 -0.216032,-4.0798 -1.697291,-4.28588 -1.241429,-0.17226 -2.253657,0.74234 -3.309322,1.48945 -0.05129,0.0363 -0.110673,-0.0561 -0.06423,-0.11516 0.0021,-0.003 0.0041,-0.004 0.0062,-0.008 -0.03558,-0.0293 -0.06261,-0.0783 -0.06308,-0.15216 -0.119453,-14.62941 -0.387932,-29.33123 -0.05776,-43.95647 0.0044,-0.19684 0.219266,-0.1978 0.222039,0 0.203324,14.60993 -0.0076,29.2422 0.110211,43.8566 1.170034,-1.32005 2.904986,-2.0895 4.311153,-1.05495 1.199379,0.88238 1.629593,3.01272 0.732659,4.4894"
       style="fill:#171717;fill-opacity:1;fill-rule:nonzero;stroke:none;stroke-width:0.027149"
       id="path1633-2" />
    <path
       d="m 18.252333,65.227067 c -0.03535,-0.117828 -0.165894,-0.03422 -0.137706,0.08855 0.711633,3.093862 2.554946,4.926895 3.798918,7.469717 0.915417,1.871487 1.394614,4.171598 1.163796,6.511573 -0.137013,1.390297 -0.536035,2.702278 -1.428117,3.278011 -1.146237,0.739775 -2.200748,-0.18803 -2.706746,-1.734961 -0.184378,-0.910519 -0.154572,-1.890889 0.615285,-2.155825 0.414272,-0.142522 0.91588,-0.07197 1.177197,0.494242 0.357434,0.773994 0.223656,1.904647 -0.49976,1.929694 -0.132622,0.0046 -0.162659,0.300214 -0.03165,0.3556 0.544122,0.231423 1.007838,-0.547864 1.011073,-1.345494 0.0039,-0.904875 -0.420972,-1.760361 -1.014769,-1.87572 -0.579011,-0.112183 -1.260376,0.117123 -1.524004,0.994834 -0.126846,0.422275 -0.135625,0.849841 -0.0707,1.259769 7.21e-4,0.0067 -2.3e-4,0.01235 9.17e-4,0.01976 0.300827,1.839736 1.437591,3.048 2.682716,2.684639 1.37128,-0.400403 2.005742,-2.402417 2.108559,-4.361039 0.326011,-6.211712 -3.660981,-8.641645 -5.145011,-13.613343"
       style="fill:#171717;fill-opacity:1;fill-rule:nonzero;stroke:none;stroke-width:0.0285498"
       id="path1641" />
    <path
       d="m 21.545251,84.399835 c -1.061211,-0.784578 -2.209526,-0.177447 -3.086129,0.858308 -0.04089,0.04833 -0.04575,0.118181 -0.03026,0.180623 -0.893007,1.452739 -0.478273,4.42348 1.040184,4.531783 0.795504,0.0568 1.288102,-1.123244 1.324377,-2.241197 0.04182,-1.28905 -0.766854,-1.379009 -1.345864,-0.812095 -0.109287,0.107245 -0.0402,0.421217 0.09334,0.338667 0.320697,-0.197908 0.917729,-0.731661 0.960473,0.649464 0.0074,0.235656 -0.156189,0.783519 -0.213952,0.934861 -0.408033,1.072092 -1.258758,0.773642 -1.705839,-0.02293 -0.624526,-1.113367 -0.402257,-2.513895 0.204941,-3.45052 0.754608,-0.731308 1.615267,-1.25342 2.496722,-0.676981 1.082698,0.708025 1.214627,2.356909 1.191984,3.949348 -0.03373,2.374194 -0.585941,4.671483 -1.350716,6.713361 -0.672354,1.795992 -1.592162,3.293534 -2.347925,4.996043 -0.300365,0.67733 -0.61413,1.43192 -0.701235,2.21368 -0.0012,0.004 -0.003,0.006 -0.0039,0.01 -0.440381,1.69298 0.895548,3.02578 1.864569,2.3809 0.497913,-0.33126 0.654564,-1.00154 0.42259,-1.74378 -0.144406,-0.46285 -0.519399,-0.85266 -0.786954,-0.35243 -0.05314,0.0995 0.03165,0.23742 0.09427,0.14394 0.325087,-0.48542 0.518937,0.40005 0.542042,0.64452 0.03628,0.38171 -0.07994,0.6978 -0.296899,0.87736 -0.257851,0.21308 -0.594952,0.25012 -0.875908,0.13547 -0.488208,-0.19967 -0.737973,-0.80151 -0.786724,-1.48872 0.02426,-1.66371 1.070221,-3.266727 1.677651,-4.446064 0.481045,-0.933802 0.944761,-1.879952 1.341011,-2.904772 0.810753,-2.096558 1.394847,-4.442884 1.474097,-6.893278 0.05568,-1.726847 -0.05845,-3.684059 -1.195913,-4.525081"
       style="fill:#171717;fill-opacity:1;fill-rule:nonzero;stroke:none;stroke-width:0.0285498"
       id="path1643" />
    <path
       d="m 18.339886,146.72348 c -0.03535,0.12101 -0.165894,0.0352 -0.137706,-0.0909 0.711633,-3.1759 2.554946,-5.05753 3.798917,-7.66777 0.915418,-1.92111 1.394615,-4.2822 1.163797,-6.68422 -0.137013,-1.42715 -0.536035,-2.77393 -1.428117,-3.36492 -1.146238,-0.75939 -2.200748,0.19301 -2.706746,1.78095 -0.184378,0.93467 -0.154572,1.94103 0.615285,2.213 0.414272,0.1463 0.91588,0.0738 1.177197,-0.50735 0.357434,-0.79451 0.223656,-1.95516 -0.49976,-1.98087 -0.132622,-0.004 -0.162659,-0.30817 -0.03165,-0.36501 0.544122,-0.23757 1.007838,0.56238 1.011073,1.38115 0.0039,0.92888 -0.420972,1.80705 -1.01477,1.92546 -0.57901,0.11517 -1.260375,-0.12029 -1.524003,-1.02121 -0.126846,-0.43347 -0.135626,-0.87238 -0.0707,-1.29317 7.2e-4,-0.007 -2.31e-4,-0.0128 9.17e-4,-0.0202 0.300827,-1.88852 1.437591,-3.12882 2.682716,-2.75582 1.37128,0.41102 2.005742,2.46611 2.108559,4.47666 0.326011,6.37642 -3.660981,8.87078 -5.145011,13.9743"
       style="fill:#171717;fill-opacity:1;fill-rule:nonzero;stroke:none;stroke-width:0.0289258"
       id="path1641-0" />
    <path
       d="m 21.632804,127.04236 c -1.061211,0.80539 -2.209527,0.18216 -3.086129,-0.88106 -0.04089,-0.0496 -0.04575,-0.12129 -0.03026,-0.18542 -0.893006,-1.49125 -0.478272,-4.54076 1.040185,-4.65192 0.795504,-0.0583 1.288102,1.15301 1.324377,2.30061 0.04182,1.32323 -0.766854,1.41558 -1.345864,0.83362 -0.109287,-0.11003 -0.0402,-0.43237 0.09334,-0.34764 0.320697,0.20316 0.917729,0.75106 0.960473,-0.66669 0.0074,-0.2419 -0.15619,-0.80429 -0.213952,-0.95963 -0.408033,-1.10052 -1.258758,-0.79416 -1.705839,0.0235 -0.624527,1.14288 -0.402257,2.58055 0.204941,3.542 0.754608,0.7507 1.615267,1.28666 2.496722,0.69494 1.082698,-0.72679 1.214627,-2.4194 1.191984,-4.05406 -0.03373,-2.43714 -0.585941,-4.79533 -1.350716,-6.89135 -0.672354,-1.84361 -1.592162,-3.38087 -2.347925,-5.12851 -0.300365,-0.69529 -0.61413,-1.46989 -0.701235,-2.27237 -0.0012,-0.004 -0.003,-0.006 -0.0039,-0.01 -0.440381,-1.73788 0.895548,-3.10602 1.864569,-2.44403 0.497913,0.34004 0.654564,1.0281 0.42259,1.79001 -0.144406,0.47512 -0.519399,0.87527 -0.786954,0.36178 -0.05314,-0.1022 0.03165,-0.24372 0.09427,-0.14776 0.325087,0.4983 0.518937,-0.41066 0.542042,-0.6616 0.03628,-0.39184 -0.07994,-0.71631 -0.296899,-0.90063 -0.257851,-0.21874 -0.594952,-0.25675 -0.875908,-0.13912 -0.488209,0.20497 -0.737973,0.82277 -0.786725,1.5282 0.02426,1.70781 1.070222,3.35332 1.677651,4.56394 0.481045,0.95855 0.944762,1.92979 1.341012,2.98178 0.810753,2.15215 1.394846,4.56069 1.474097,7.07604 0.05568,1.77264 -0.05845,3.78175 -1.195913,4.64507"
       style="fill:#171717;fill-opacity:1;fill-rule:nonzero;stroke:none;stroke-width:0.0289258"
       id="path1643-4" />
  </g>
</svg>
